<svg width="6" height="12" viewBox="0 0 6 12" fill="none" xmlns="http://www.w3.org/2000/svg">
<path d="M1.76982 12C2.39523 12 3.09211 11.7335 3.94981 10.6506L4.85418 9.52152C4.88061 9.48851 4.89971 9.45091 4.91034 9.41093C4.92097 9.37094 4.92292 9.32938 4.91607 9.28868C4.90923 9.24799 4.89373 9.20898 4.87049 9.17394C4.84724 9.13891 4.81672 9.10856 4.78071 9.08468C4.70456 9.03455 4.61119 9.01249 4.51862 9.02274C4.42605 9.033 4.34083 9.07484 4.27939 9.14021L2.81514 10.6941C2.78146 10.7298 2.73642 10.7546 2.6866 10.7647C2.63677 10.7749 2.58477 10.7699 2.53818 10.7506C2.49295 10.7321 2.45619 10.6993 2.43439 10.6579C2.4126 10.6166 2.40716 10.5695 2.41905 10.5248L4.26351 3.6335C4.2839 3.5584 4.28369 3.47972 4.2629 3.40471C4.24212 3.32969 4.20143 3.26076 4.14458 3.20426C4.08773 3.14775 4.01654 3.10549 3.93757 3.08136C3.85861 3.05723 3.7744 3.05201 3.6927 3.06617L0.367115 3.6335C0.301729 3.6447 0.24116 3.67314 0.192595 3.71547C0.14403 3.75779 0.109508 3.81221 0.0931265 3.87228L0.00775389 4.1814C-0.00164579 4.21563 -0.00251184 4.25141 0.00522377 4.286C0.0129594 4.32059 0.0290906 4.35307 0.0523795 4.38095C0.0756685 4.40883 0.105497 4.43136 0.139576 4.44683C0.173656 4.46229 0.211082 4.47027 0.248983 4.47015H1.96637L0.501132 9.95095C0.447525 10.1675 0.358181 10.534 0.358181 10.8006C0.358181 11.4169 0.751295 12 1.76982 12ZM3.58648 2.24896C4.28337 2.24896 4.81943 1.8658 4.96238 1.28274C4.99812 1.14947 5.01599 0.999538 5.01599 0.899584C5.01599 0.433133 4.62287 0 3.89025 0C3.19337 0 2.6573 0.383156 2.51435 0.96622C2.48118 1.09167 2.4632 1.22019 2.46075 1.34938C2.46075 1.81583 2.85386 2.24896 3.58648 2.24896Z" fill="white" fill-opacity="0.5"/>
</svg>
