<svg width="23" height="23" viewBox="0 0 23 23" fill="none" xmlns="http://www.w3.org/2000/svg">
<path d="M4.58232 14.9312C6.56078 14.9312 8.16464 13.3274 8.16464 11.3489C8.16464 9.37046 6.56078 7.7666 4.58232 7.7666C2.60386 7.7666 1 9.37046 1 11.3489C1 13.3274 2.60386 14.9312 4.58232 14.9312Z" stroke="#FF99BF" stroke-width="1.71" stroke-linecap="round" stroke-linejoin="round"/>
<path d="M18.1175 21.6978C20.0959 21.6978 21.6998 20.0939 21.6998 18.1155C21.6998 16.1371 20.0959 14.5332 18.1175 14.5332C16.1391 14.5332 14.5352 16.1371 14.5352 18.1155C14.5352 20.0939 16.1391 21.6978 18.1175 21.6978Z" stroke="#FF99BF" stroke-width="1.71" stroke-linecap="round" stroke-linejoin="round"/>
<path d="M18.1175 8.16464C20.0959 8.16464 21.6998 6.56078 21.6998 4.58232C21.6998 2.60386 20.0959 1 18.1175 1C16.1391 1 14.5352 2.60386 14.5352 4.58232C14.5352 6.56078 16.1391 8.16464 18.1175 8.16464Z" stroke="#FF99BF" stroke-width="1.71" stroke-linecap="round" stroke-linejoin="round"/>
<path d="M7.78125 9.75664L14.9141 6.17432" stroke="#FF99BF" stroke-width="1.71" stroke-linecap="round" stroke-linejoin="round"/>
<path d="M7.78125 12.9409L14.9141 16.5232" stroke="#FF99BF" stroke-width="1.71" stroke-linecap="round" stroke-linejoin="round"/>
</svg>
