<svg width="14" height="14" viewBox="0 0 14 14" fill="none" xmlns="http://www.w3.org/2000/svg">
<path fill-rule="evenodd" clip-rule="evenodd" d="M4.51079 11.8383C4.215 11.9884 3.85716 11.962 3.58809 11.7702C3.31901 11.5785 3.18551 11.2547 3.24385 10.9354L3.71596 8.30563L1.7283 6.45449C1.48535 6.22932 1.39631 5.88895 1.49911 5.57835C1.60191 5.26776 1.87845 5.04167 2.21092 4.99638L4.97065 4.613L6.21659 2.19756C6.36432 1.90787 6.66824 1.72461 7.00092 1.72461C7.33359 1.72461 7.63752 1.90787 7.78524 2.19756L9.03118 4.613L11.7909 4.99638C12.1234 5.04167 12.3999 5.26776 12.5027 5.57835C12.6055 5.88895 12.5165 6.22932 12.2735 6.45449L10.2859 8.30563L10.758 10.936C10.8163 11.2553 10.6828 11.579 10.4137 11.7708C10.1447 11.9625 9.78683 11.9889 9.49104 11.8389L7.00092 10.5884L4.51079 11.8383Z" fill="#FFCE00" stroke="#FFCE00" stroke-width="1.5" stroke-linecap="round" stroke-linejoin="round"/>
</svg>
