<svg width="24" height="24" viewBox="0 0 24 24" fill="none" xmlns="http://www.w3.org/2000/svg">
<path fill-rule="evenodd" clip-rule="evenodd" d="M6.944 6H5.056C4.473 6 4 6.473 4 7.056V14.444C4 15.027 4.473 15.5 5.056 15.5H6.944C7.527 15.5 8 15.027 8 14.444V7.056C8 6.473 7.527 6 6.944 6V6Z" stroke="white" stroke-opacity="0.5" stroke-width="1.5" stroke-linecap="round" stroke-linejoin="round"/>
<path d="M8 14.4279L11.649 19.1789C12.328 20.0639 13.654 20.0859 14.363 19.2249V19.2249C14.628 18.9039 14.772 18.4999 14.772 18.0839V14.8129H17.868C18.469 14.8129 19.03 14.5129 19.364 14.0139L19.693 13.5229C19.988 13.0819 20.074 12.5329 19.927 12.0239L18.568 7.30194C18.346 6.53094 17.641 5.99994 16.839 5.99994H10.55C10.05 5.99994 9.572 6.20794 9.232 6.57394L8 7.89994" stroke="white" stroke-opacity="0.5" stroke-width="1.5" stroke-linecap="round" stroke-linejoin="round"/>
</svg>
